<svg width="44" height="44" viewBox="0 0 44 44" fill="none" xmlns="http://www.w3.org/2000/svg">
<rect width="44" height="44" rx="8" fill="#0065B0"/>
<path d="M22.5527 19.3818C22.2601 19.3822 21.9797 19.4986 21.7728 19.7054C21.5659 19.9123 21.4496 20.1927 21.4492 20.4853V21.5887C21.4492 21.8814 21.5655 22.1621 21.7724 22.369C21.9793 22.5759 22.26 22.6922 22.5527 22.6922C22.8453 22.6922 23.126 22.5759 23.3329 22.369C23.5399 22.1621 23.6561 21.8814 23.6561 21.5887V20.4853C23.6558 20.1927 23.5394 19.9123 23.3325 19.7054C23.1257 19.4986 22.8452 19.3822 22.5527 19.3818Z" fill="white"/>
<path d="M24.1485 29.6173C24.1868 29.6939 24.2068 29.7784 24.2068 29.8641V33.1744H25.3102V27.1055H22.8926L24.1485 29.6173Z" fill="white"/>
<path d="M14.9375 28.4296L15.9306 27.1055H13.9277L12.6719 28.182L15.1681 33.1744H16.2685L14.8555 28.9351C14.8273 28.8505 14.82 28.7603 14.8343 28.6723C14.8485 28.5842 14.884 28.501 14.9375 28.4296Z" fill="white"/>
<path d="M15.9306 21.0367C16.3694 21.0362 16.7901 20.8617 17.1004 20.5514C17.4107 20.2411 17.5852 19.8204 17.5857 19.3815V18.2781C17.5857 18.1505 17.6299 18.0269 17.7108 17.9283C17.7916 17.8296 17.9042 17.7621 18.0293 17.7371L19.0138 17.5402C19.3886 17.4643 19.7258 17.2614 19.9682 16.9657C20.2106 16.6699 20.3435 16.2995 20.3444 15.9171V14.416H14.2754V19.3815C14.2759 19.8204 14.4505 20.2411 14.7607 20.5514C15.071 20.8617 15.4917 21.0362 15.9306 21.0367Z" fill="white"/>
<path d="M36.3457 14.416V15.5195C37.2429 15.5195 38.0009 15.0142 38.0009 14.416H36.3457Z" fill="white"/>
<path d="M29.7235 15.5195C30.027 15.5213 30.3277 15.4613 30.6073 15.3431C30.6913 15.3067 30.783 15.2917 30.8741 15.2995C30.9653 15.3074 31.0531 15.3377 31.1296 15.3879C31.2061 15.4381 31.269 15.5066 31.3125 15.5871C31.3559 15.6676 31.3787 15.7577 31.3787 15.8492V19.1531L33.2624 21.0367H35.2408V14.416H28.0684C28.0684 15.0142 28.8264 15.5195 29.7235 15.5195Z" fill="white"/>
<path d="M30.276 19.3815V16.5787C30.0936 16.6081 29.9091 16.6229 29.7243 16.6229C28.2032 16.6229 26.9657 15.6329 26.9657 14.416H21.4484V15.9171C21.447 16.5545 21.2256 17.1718 20.8215 17.6647C20.4174 18.1576 19.8555 18.4958 19.2308 18.6222L18.6898 18.7304V19.3815C18.6898 20.1132 18.3992 20.8148 17.8818 21.3322C17.3645 21.8495 16.6628 22.1402 15.9312 22.1402C15.1995 22.1402 14.4979 21.8495 13.9805 21.3322C13.4632 20.8148 13.1726 20.1132 13.1726 19.3815V14.416H12.0691C11.3377 14.4168 10.6365 14.7077 10.1194 15.2249C9.60221 15.7421 9.3113 16.4433 9.31048 17.1746V26.554C9.31049 26.6396 9.29054 26.7241 9.25221 26.8007L8.20703 28.8911V33.1747H9.31048V29.8643C9.31048 29.7847 9.32769 29.7061 9.36094 29.6338C9.39419 29.5615 9.44268 29.4972 9.5031 29.4454L13.1726 26.3002V23.2436H14.276V26.0022H25.3105V23.2436H26.414V26.3604L28.5 28.9678C28.5783 29.0656 28.6209 29.1873 28.6209 29.3126V33.1747H29.7243V25.4505C29.7243 25.3844 29.7362 25.3187 29.7594 25.2568L31.3795 20.9366V20.7135L30.4376 19.7717C30.3864 19.7204 30.3457 19.6596 30.318 19.5927C30.2903 19.5257 30.276 19.454 30.276 19.3815ZM24.7588 21.5884C24.7588 22.1737 24.5263 22.7351 24.1124 23.149C23.6985 23.5628 23.1372 23.7953 22.5519 23.7953C21.9666 23.7953 21.4052 23.5628 20.9914 23.149C20.5775 22.7351 20.345 22.1737 20.345 21.5884V20.485C20.345 19.8997 20.5775 19.3384 20.9914 18.9245C21.4052 18.5106 21.9666 18.2781 22.5519 18.2781C23.1372 18.2781 23.6985 18.5106 24.1124 18.9245C24.5263 19.3384 24.7588 19.8997 24.7588 20.485V21.5884Z" fill="white"/>
<path d="M8.2069 15.519H7.65517C7.21635 15.5196 6.79565 15.6941 6.48535 16.0044C6.17506 16.3147 6.00051 16.7354 6 17.1742V27.1053H7.10345V17.1742C7.10361 17.0279 7.16179 16.8877 7.26523 16.7843C7.36866 16.6808 7.5089 16.6227 7.65517 16.6225H8.2069V15.519Z" fill="white"/>
</svg>
