<svg width="28" height="28" viewBox="0 0 28 28" fill="none" xmlns="http://www.w3.org/2000/svg">
<path d="M14.7518 14.5113H4.39307V10.4458H14.7518C15.3568 10.4458 15.7776 10.5504 15.9887 10.7331C16.1999 10.9157 16.3307 11.2545 16.3307 11.7494V13.2092C16.3307 13.7307 16.1999 14.0695 15.9887 14.2521C15.7776 14.4348 15.3568 14.5129 14.7518 14.5129V14.5113ZM15.4624 6.6129H0V23.9991H4.39307V18.3426H12.489L16.3307 23.9991H21.25L17.0145 18.3161C18.576 18.0866 19.2772 17.612 19.8555 16.8298C20.4338 16.0476 20.7237 14.797 20.7237 13.128V11.8244C20.7237 10.8345 20.6182 10.0523 20.4338 9.45283C20.2494 8.85329 19.9343 8.33183 19.4868 7.86347C19.0141 7.42005 18.4878 7.10781 17.8559 6.89859C17.2241 6.71592 16.4346 6.61133 15.4624 6.61133V6.6129Z" fill="#100943"/>
<path d="M24.625 6.61224C26.489 6.61224 28 5.13203 28 3.30612C28 1.4802 26.489 0 24.625 0C22.761 0 21.25 1.4802 21.25 3.30612C21.25 5.13203 22.761 6.61224 24.625 6.61224Z" fill="#ED143B"/>
</svg>
