<svg width="28" height="28" viewBox="0 0 28 28" fill="none" xmlns="http://www.w3.org/2000/svg">
<path d="M4.66602 7V14C4.66602 14 4.66602 17.5 12.8327 17.5C20.9993 17.5 20.9993 14 20.9993 14V7" stroke="#6B7A99" stroke-width="1.8" stroke-linecap="round" stroke-linejoin="round"/>
<path d="M12.8327 24.5C4.66602 24.5 4.66602 21 4.66602 21V14M12.8327 3.5C20.9993 3.5 20.9993 7 20.9993 7C20.9993 7 20.9993 10.5 12.8327 10.5C4.66602 10.5 4.66602 7 4.66602 7C4.66602 7 4.66602 3.5 12.8327 3.5ZM20.1897 19.9652L21.2502 17.717C21.2788 17.6527 21.3255 17.5981 21.3845 17.5598C21.4435 17.5215 21.5123 17.5011 21.5827 17.5011C21.653 17.5011 21.7219 17.5215 21.7809 17.5598C21.8399 17.5981 21.8866 17.6527 21.9152 17.717L22.9768 19.9652L25.3475 20.328C25.652 20.3747 25.7733 20.7667 25.554 20.9907L23.8378 22.7407L24.2427 25.2117C24.294 25.529 23.9755 25.7717 23.7037 25.6212L21.5827 24.4545L19.4617 25.6212C19.1898 25.7717 18.8713 25.529 18.9227 25.2117L19.3275 22.7407L17.6125 20.9907C17.3908 20.7667 17.5133 20.3747 17.8178 20.328L20.1897 19.9652Z" stroke="#6B7A99" stroke-width="1.8" stroke-linecap="round" stroke-linejoin="round"/>
</svg>
