<svg width="44" height="44" viewBox="0 0 44 44" fill="none" xmlns="http://www.w3.org/2000/svg">
<rect width="44" height="44" rx="8" fill="#0065B0"/>
<path d="M11.2812 17.7676C11.2812 18.026 11.3839 18.2737 11.5665 18.4564C11.7492 18.639 11.997 18.7417 12.2553 18.7417C12.5136 18.7417 12.7614 18.639 12.944 18.4564C13.1267 18.2737 13.2293 18.026 13.2293 17.7676V15.8196H12.4988L11.4761 17.1832C11.35 17.352 11.2817 17.557 11.2812 17.7676Z" fill="white"/>
<path d="M13.7163 26.0469C13.7179 24.6266 14.2829 23.2649 15.2872 22.2606C16.2915 21.2563 17.6532 20.6914 19.0735 20.6898H21.7572L18.3153 12.2766C18.128 11.8186 17.7873 11.4399 17.3517 11.2052C16.9161 10.9705 16.4124 10.8944 15.9269 10.9898C15.4414 11.0853 15.004 11.3464 14.6897 11.7285C14.3753 12.1107 14.2034 12.5901 14.2033 13.085V17.8422C14.2034 18.202 14.1036 18.5547 13.915 18.8611C13.5056 19.5264 12.6803 21.3219 11.6509 23.7872C11.3496 24.5095 11.2296 25.2946 11.3015 26.0739C11.3734 26.8532 11.6349 27.603 12.0633 28.258C12.4916 28.913 13.0738 29.4532 13.7589 29.8314C14.4441 30.2096 15.2114 30.4144 15.9938 30.4279C15.2905 29.9341 14.7164 29.2782 14.32 28.5156C13.9235 27.7531 13.7165 26.9063 13.7163 26.0469ZM16.6384 12.4105C16.8311 12.4105 17.0194 12.4677 17.1796 12.5747C17.3397 12.6817 17.4646 12.8338 17.5383 13.0118C17.612 13.1898 17.6313 13.3856 17.5937 13.5746C17.5561 13.7635 17.4634 13.9371 17.3272 14.0733C17.1909 14.2095 17.0174 14.3023 16.8284 14.3399C16.6395 14.3775 16.4436 14.3582 16.2657 14.2844C16.0877 14.2107 15.9356 14.0859 15.8285 13.9257C15.7215 13.7655 15.6644 13.5772 15.6644 13.3846C15.6647 13.1263 15.7674 12.8788 15.95 12.6962C16.1326 12.5136 16.3802 12.4108 16.6384 12.4105Z" fill="white"/>
<path d="M16.6387 34.8134V35.3004H19.5608V34.8134C19.5607 34.6475 19.589 34.4828 19.6445 34.3264H17.1257C16.9966 34.3266 16.8728 34.3779 16.7815 34.4692C16.6902 34.5605 16.6388 34.6843 16.6387 34.8134Z" fill="white"/>
<path d="M13.4576 10.9268L13.8056 11.2872C14.1144 10.8511 14.5304 10.502 15.0135 10.2736C15.4966 10.0452 16.0305 9.94532 16.5634 9.9835C17.0964 10.0217 17.6106 10.1967 18.0562 10.4916C18.5018 10.7865 18.8638 11.1913 19.1073 11.667L19.8222 10.9268C19.915 10.8316 19.9834 10.7153 20.0214 10.5879C20.0549 10.4562 20.0562 10.3183 20.0251 10.186C19.9941 10.0538 19.9316 9.93088 19.8431 9.82782C19.762 9.73098 19.6579 9.65598 19.5404 9.6097C19.4229 9.56342 19.2956 9.54733 19.1703 9.56289C18.7949 9.60427 18.4162 9.5234 18.0904 9.33229C17.7647 9.14118 17.5093 8.85005 17.3623 8.50217C17.3013 8.36122 17.2004 8.24118 17.0721 8.15685C16.9437 8.07252 16.7935 8.02759 16.64 8.02759C16.4864 8.02759 16.3362 8.07252 16.2078 8.15685C16.0795 8.24118 15.9786 8.36122 15.9177 8.50217C15.7707 8.85008 15.5153 9.14124 15.1895 9.33236C14.8638 9.52349 14.485 9.60436 14.1096 9.56295C13.9843 9.54744 13.857 9.56356 13.7395 9.60984C13.622 9.65611 13.518 9.73108 13.4369 9.82789C13.3483 9.93093 13.2859 10.0538 13.2548 10.1861C13.2238 10.3184 13.225 10.4562 13.2585 10.5879C13.2965 10.7153 13.3648 10.8316 13.4576 10.9268Z" fill="white"/>
<path d="M13.2302 13.6155L12.8333 13.6337L12.2935 13.6851C11.9673 13.7148 11.6574 13.8411 11.4034 14.0478C11.1493 14.2545 10.9626 14.5323 10.8672 14.8456H13.2302V13.6155Z" fill="white"/>
<path d="M30.7627 18.7418C31.5823 18.7408 32.3741 18.445 32.9936 17.9085C33.6131 17.3721 34.019 16.6307 34.1372 15.8197H30.7627C30.6336 15.8197 30.5097 15.7684 30.4184 15.6771C30.327 15.5857 30.2757 15.4619 30.2757 15.3327C30.2757 15.2035 30.327 15.0797 30.4184 14.9883C30.5097 14.897 30.6336 14.8457 30.7627 14.8457C31.5823 14.8446 32.3741 14.5489 32.9936 14.0124C33.6131 13.476 34.019 12.7346 34.1372 11.9236H30.6384C29.7411 11.9206 28.861 12.169 28.0978 12.6407C27.3346 13.1124 26.7187 13.7885 26.3202 14.5923L23.2715 20.6899H28.3277C28.4568 20.6899 28.5807 20.7412 28.672 20.8325C28.7634 20.9238 28.8147 21.0477 28.8147 21.1769C28.8149 21.7339 28.6954 22.2844 28.4643 22.7912C28.2332 23.2979 27.896 23.7492 27.4754 24.1143C27.58 24.1413 27.6726 24.2023 27.7387 24.2877C27.8048 24.3731 27.8407 24.478 27.8407 24.586V25.073C27.8408 25.555 27.7386 26.0315 27.5407 26.4709C27.3428 26.9104 27.0539 27.3028 26.6929 27.6221C26.7474 27.6678 26.7911 27.7249 26.8212 27.7893C26.8512 27.8538 26.8667 27.924 26.8666 27.9951C26.8672 28.6373 26.6851 29.2665 26.3417 29.8092C26.8128 29.5432 27.2355 29.1993 27.5918 28.7922L29.4222 26.7004C29.4679 26.6481 29.5242 26.6062 29.5875 26.5776C29.6507 26.5489 29.7193 26.534 29.7887 26.534H30.7627C31.5823 26.533 32.3741 26.2372 32.9936 25.7008C33.6131 25.1643 34.019 24.4229 34.1372 23.612H30.7627C30.6336 23.612 30.5097 23.5606 30.4184 23.4693C30.327 23.378 30.2757 23.2541 30.2757 23.1249C30.2757 22.9958 30.327 22.8719 30.4184 22.7806C30.5097 22.6892 30.6336 22.6379 30.7627 22.6379C31.5823 22.6369 32.3741 22.3411 32.9936 21.8046C33.6131 21.2682 34.019 20.5268 34.1372 19.7158H30.7627C30.6336 19.7158 30.5097 19.6645 30.4184 19.5732C30.327 19.4819 30.2757 19.358 30.2757 19.2288C30.2757 19.0997 30.327 18.9758 30.4184 18.8845C30.5097 18.7931 30.6336 18.7418 30.7627 18.7418Z" fill="white"/>
<path d="M19.0005 31.4043L18.6758 33.3524H19.6364L19.9611 31.4043H19.075H19.0005Z" fill="white"/>
<path d="M22.9706 27.508H24.4317C25.0773 27.5073 25.6962 27.2505 26.1527 26.794C26.6093 26.3375 26.866 25.7185 26.8668 25.0729H22.9706C22.8415 25.0729 22.7176 25.0216 22.6263 24.9303C22.5349 24.8389 22.4836 24.7151 22.4836 24.5859C22.4836 24.4567 22.5349 24.3329 22.6263 24.2415C22.7176 24.1502 22.8415 24.0989 22.9706 24.0989H24.9187C25.609 24.098 26.2768 23.8531 26.8041 23.4075C27.3314 22.962 27.6842 22.3443 27.8002 21.6638H19.0745C17.9121 21.6638 16.7972 22.1256 15.9752 22.9476C15.1532 23.7696 14.6914 24.8845 14.6914 26.0469C14.6914 27.2094 15.1532 28.3243 15.9752 29.1463C16.7972 29.9683 17.9121 30.4301 19.0745 30.4301H23.4577C24.0188 30.4294 24.5626 30.2352 24.9972 29.8804C25.4319 29.5255 25.731 29.0317 25.844 28.482H22.9706C22.8415 28.482 22.7176 28.4307 22.6263 28.3394C22.5349 28.248 22.4836 28.1242 22.4836 27.995C22.4836 27.8658 22.5349 27.742 22.6263 27.6506C22.7176 27.5593 22.8415 27.508 22.9706 27.508Z" fill="white"/>
<path d="M23.4584 31.4043H22.897L22.5723 33.3524H23.5329L23.8576 31.4043H23.4584Z" fill="white"/>
<path d="M24.9183 34.3264H21.0222C20.8931 34.3266 20.7693 34.3779 20.678 34.4692C20.5867 34.5605 20.5353 34.6843 20.5352 34.8134V35.3004H25.4053V34.8134C25.4052 34.6843 25.3538 34.5605 25.2625 34.4692C25.1712 34.3779 25.0474 34.3266 24.9183 34.3264Z" fill="white"/>
</svg>
