<svg width="44" height="44" viewBox="0 0 44 44" fill="none" xmlns="http://www.w3.org/2000/svg">
<rect width="44" height="44" rx="8" fill="#0065B0"/>
<path d="M11.0478 24.8711C11.141 24.8711 11.2355 24.8447 11.319 24.7897L31.0875 11.7896L30.4592 14.5934C30.3993 14.86 30.5669 15.1244 30.8335 15.1841C30.87 15.1923 30.9064 15.1962 30.9422 15.1962C31.1684 15.1962 31.3727 15.0399 31.4242 14.8098L32.3187 10.8177C32.335 10.75 32.3394 10.6801 32.3263 10.6106C32.2932 10.4223 32.152 10.2625 31.9547 10.2151L28.085 9.28593C27.8206 9.22315 27.5528 9.38567 27.4888 9.65129C27.425 9.91692 27.5885 10.1838 27.8541 10.2475L30.622 10.9121L10.7757 23.9633C10.5475 24.1133 10.484 24.42 10.6342 24.6482C10.7291 24.7928 10.887 24.8711 11.0478 24.8711Z" fill="white"/>
<path d="M33.0295 33.0108H32.3919V17.5407C32.3919 17.2687 32.1694 17.0461 31.8974 17.0461H28.6976C28.4256 17.0461 28.2031 17.2687 28.2031 17.5407V33.0108H26.6898V20.7751C26.6898 20.5031 26.4672 20.2805 26.1952 20.2805H22.9954C22.7234 20.2805 22.5009 20.5031 22.5009 20.7751V33.0108H21.3189V23.9748C21.3189 23.7028 21.0964 23.4803 20.8244 23.4803H17.6246C17.3526 23.4803 17.1301 23.7028 17.1301 23.9748V33.0108H15.953V26.6157C15.953 26.3437 15.7305 26.1212 15.4585 26.1212H12.2587C11.9868 26.1212 11.7642 26.3437 11.7642 26.6157V33.0108H9.85783C9.58472 33.0108 9.36328 33.2322 9.36328 33.5053C9.36328 33.7785 9.58472 33.9999 9.85783 33.9999H33.0295C33.3027 33.9999 33.5241 33.7785 33.5241 33.5053C33.5241 33.2322 33.3027 33.0108 33.0295 33.0108Z" fill="white"/>
</svg>
