<svg width="36" height="36" viewBox="0 0 36 36" fill="none" xmlns="http://www.w3.org/2000/svg">
<path d="M23.1618 1.2002H12.8543C3.44041 1.2002 1.20117 3.43944 1.20117 12.8365V23.1441C1.20117 32.5563 3.42361 34.7972 12.8375 34.7972H23.1451C32.5573 34.7972 34.7982 32.5748 34.7982 23.1609V12.8533C34.7982 3.43944 32.5757 1.2002 23.1618 1.2002ZM28.324 25.1717H25.8731C24.9459 25.1717 24.667 24.4208 23.0039 22.7577C21.5526 21.3584 20.9394 21.1837 20.5715 21.1837C20.0642 21.1837 19.9248 21.3231 19.9248 22.0236V24.2276C19.9248 24.8239 19.7316 25.1733 18.1744 25.1733C16.6631 25.0718 15.1976 24.6126 13.8985 23.8337C12.5994 23.0548 11.504 21.9784 10.7024 20.6932C8.79942 18.3246 7.47531 15.5447 6.83539 12.5745C6.83539 12.2066 6.97482 11.874 7.67531 11.874H10.1245C10.7545 11.874 10.9813 12.1545 11.2282 12.8012C12.4175 16.302 14.4468 19.3459 15.2699 19.3459C15.5857 19.3459 15.7235 19.2065 15.7235 18.4187V14.8137C15.6193 13.1691 14.7458 13.0297 14.7458 12.435C14.757 12.2782 14.8289 12.1319 14.9462 12.0271C15.0635 11.9224 15.217 11.8674 15.3741 11.874H19.2243C19.7501 11.874 19.9248 12.136 19.9248 12.766V17.6308C19.9248 18.1566 20.1516 18.3313 20.3095 18.3313C20.6253 18.3313 20.8689 18.1566 21.4467 17.5787C22.6879 16.0651 23.702 14.3787 24.457 12.5728C24.5342 12.3559 24.6802 12.1701 24.8728 12.044C25.0654 11.9178 25.294 11.8581 25.5237 11.874H27.9746C28.7087 11.874 28.8649 12.2418 28.7087 12.766C27.8175 14.7623 26.7149 16.6574 25.4196 18.4187C25.1558 18.8218 25.05 19.0318 25.4196 19.5038C25.6631 19.8717 26.5216 20.589 27.0994 21.271C27.9392 22.1087 28.6365 23.0778 29.164 24.1402C29.3739 24.8222 29.0228 25.1717 28.324 25.1717Z" fill="#0077FF"/>
</svg>
