<svg width="36" height="36" viewBox="0 0 36 36" fill="none" xmlns="http://www.w3.org/2000/svg">
<path d="M33.763 17.27C33.7659 17.27 33.7681 17.27 33.771 17.27C33.9718 17.27 34.1634 17.1858 34.2994 17.0382C34.4377 16.8884 34.5061 16.6875 34.4881 16.4845C33.7652 8.53353 27.4702 2.23641 19.5186 1.51209C19.317 1.49625 19.1139 1.56177 18.9642 1.70073C18.8144 1.83897 18.7309 2.03409 18.733 2.23785C18.8583 12.8046 20.2522 17.1224 33.763 17.27ZM33.763 18.7302C20.2522 18.8778 18.859 23.1956 18.7338 33.7623C18.7316 33.9661 18.8151 34.1612 18.9649 34.2994C19.0988 34.4226 19.2738 34.491 19.4538 34.491C19.4754 34.491 19.4977 34.4902 19.5193 34.4881C27.471 33.7638 33.7659 27.4674 34.4881 19.5157C34.5061 19.3126 34.4384 19.1118 34.2994 18.962C34.1605 18.8122 33.9668 18.7381 33.763 18.7302ZM16.4319 1.51569C8.50544 2.26089 2.23064 8.55657 1.51136 16.4859C1.49336 16.689 1.56104 16.8898 1.7 17.0396C1.83608 17.1872 2.02832 17.2707 2.22848 17.2707C2.23136 17.2707 2.23424 17.2707 2.23712 17.2707C15.7033 17.1159 17.0936 12.8002 17.2203 2.24073C17.2225 2.03697 17.1382 1.84113 16.9885 1.70289C16.8373 1.56465 16.635 1.49697 16.4319 1.51569ZM2.2364 18.7294C2.01248 18.7042 1.8368 18.8108 1.69928 18.9606C1.56104 19.1103 1.49264 19.3112 1.51064 19.5142C2.22992 27.4436 8.50544 33.7393 16.4319 34.4845C16.4542 34.4866 16.4773 34.4874 16.4996 34.4874C16.6796 34.4874 16.8538 34.4197 16.9878 34.2966C17.1375 34.1583 17.2218 33.9625 17.2196 33.7587C17.0929 23.1999 15.7033 18.8842 2.2364 18.7294Z" fill="black"/>
</svg>
