<svg width="28" height="28" viewBox="0 0 28 28" fill="none" xmlns="http://www.w3.org/2000/svg">
<path fill-rule="evenodd" clip-rule="evenodd" d="M21.5636 23.0882V23.0859L21.5846 23.0357L25.0835 5.39572V5.33972C25.0835 4.89988 24.9201 4.51605 24.5678 4.28622C24.2586 4.08438 23.9028 4.07038 23.6531 4.08905C23.4207 4.11007 23.1914 4.15703 22.9695 4.22905C22.8748 4.25956 22.7814 4.29381 22.6895 4.33172L22.6743 4.33755L3.16763 11.9897L3.1618 11.9921C3.10249 12.0123 3.04444 12.0361 2.98796 12.0632C2.84923 12.1255 2.71613 12.1997 2.59013 12.2849C2.3393 12.4576 1.86213 12.8636 1.94263 13.5076C2.00913 14.0419 2.37663 14.3802 2.62513 14.5564C2.77181 14.6592 2.92951 14.7453 3.0953 14.813L3.13263 14.8294L3.1443 14.8329L3.15246 14.8364L6.56613 15.9855C6.55446 16.199 6.57546 16.4172 6.63263 16.633L8.3418 23.1185C8.43517 23.4721 8.63693 23.7875 8.91874 24.0204C9.20055 24.2534 9.54826 24.3923 9.91303 24.4175C10.2778 24.4427 10.6413 24.3531 10.9525 24.1611C11.2637 23.9691 11.507 23.6845 11.6481 23.3472L14.3175 20.4935L18.9013 24.0075L18.9666 24.0355C19.3831 24.2175 19.7716 24.2747 20.1275 24.2269C20.4833 24.1779 20.7656 24.0285 20.978 23.8594C21.2235 23.6603 21.4193 23.4066 21.5496 23.1185L21.559 23.0987L21.5625 23.0917L21.5636 23.0882ZM8.3243 16.1874C8.30537 16.1154 8.30987 16.0393 8.33714 15.9701C8.36441 15.9008 8.41304 15.8421 8.47596 15.8024L20.0505 8.45238C20.0505 8.45238 20.7318 8.03822 20.7073 8.45238C20.7073 8.45238 20.8286 8.52472 20.4635 8.86422C20.1181 9.18738 12.214 16.8186 11.4136 17.5909C11.3691 17.6341 11.338 17.6892 11.3238 17.7495L10.0335 22.6729L8.3243 16.1862V16.1874Z" fill="#2AABEE"/>
</svg>
