<svg width="36" height="36" viewBox="0 0 36 36" fill="none" xmlns="http://www.w3.org/2000/svg">
<path d="M17.565 36.0004C25.526 36.0004 31.9796 29.5544 31.9796 21.6027C31.9796 13.6511 25.526 7.20508 17.565 7.20508C9.60404 7.20508 3.15039 13.6511 3.15039 21.6027C3.15039 29.5544 9.60404 36.0004 17.565 36.0004Z" fill="#FFCC00"/>
<path fill-rule="evenodd" clip-rule="evenodd" d="M24.7829 6.92797V20.3959L24.7511 20.4065V20.4245C24.7511 21.7412 24.6557 22.9699 24.4766 23.5975C23.6178 26.6136 20.8392 28.8017 17.5443 28.8017C13.5635 28.8017 10.3789 25.5895 10.3789 21.6129C10.3789 17.6374 13.5635 14.4252 17.5443 14.4252C19.4197 14.4252 21.1276 15.1408 22.4104 16.3133C22.8291 16.6971 23.2023 17.1286 23.5214 17.6003C23.4323 17.1784 23.3454 16.6473 23.3454 16.1925V0L32.7265 2.87084V9.37263L24.7829 6.92797Z" fill="#FF3333"/>
</svg>
