<svg width="44" height="44" viewBox="0 0 44 44" fill="none" xmlns="http://www.w3.org/2000/svg">
<rect width="44" height="44" rx="8" fill="#0065B0"/>
<path d="M15.8034 27.9028C14.9738 29.0659 13.7604 29.899 12.377 30.2554L12.3811 30.2887L13.7931 33.112H14.9672L14.5374 30.5332C14.5247 30.4568 14.5288 30.3785 14.5493 30.3038C14.5699 30.2292 14.6065 30.1599 14.6566 30.1008C14.7066 30.0417 14.769 29.9942 14.8392 29.9616C14.9095 29.9291 14.986 29.9122 15.0635 29.9122C16.3649 29.9154 17.6304 29.4852 18.6602 28.6894C17.6992 28.5407 16.7582 28.2838 15.855 27.9234L15.8034 27.9028Z" fill="white"/>
<path d="M25.5385 28.3605L25.4047 27.9587C24.4783 28.3196 23.5135 28.5726 22.5293 28.7128V30.3589L23.447 33.1121H25.0996L24.6698 30.5332C24.6526 30.4302 24.6661 30.3244 24.7085 30.229L25.5385 28.3605Z" fill="white"/>
<path d="M33.9089 15.4081C34.3297 15.198 34.6875 14.8805 34.9461 14.4877L35.0528 14.3273L34.6638 14.1628C33.926 13.8504 33.1464 13.8322 32.4629 14.0989C33.0022 14.4675 33.4886 14.908 33.9089 15.4081Z" fill="white"/>
<path d="M34.6712 19.0058L33.9526 17.4486C33.4637 16.3947 32.6841 15.5021 31.7054 14.876C30.7268 14.2498 29.5897 13.916 28.4278 13.9138H13.1486C11.5648 13.9157 10.0439 14.5343 8.9085 15.6386C7.77308 16.7428 7.11235 18.2459 7.06641 19.829C7.08028 19.9646 7.14552 20.0897 7.24873 20.1787C7.35194 20.2677 7.48529 20.3137 7.62141 20.3075C7.75753 20.3012 7.8861 20.2431 7.98071 20.1451C8.07533 20.047 8.12883 19.9164 8.13022 19.7802V19.2469C8.13022 18.8226 8.29878 18.4156 8.59882 18.1156C8.89887 17.8155 9.30581 17.647 9.73014 17.647C10.1545 17.647 10.5614 17.8155 10.8614 18.1156C11.1615 18.4156 11.3301 18.8226 11.3301 19.2469V20.3135H10.2634V19.2469C10.2634 19.1054 10.2073 18.9698 10.1072 18.8698C10.0072 18.7698 9.87158 18.7136 9.73014 18.7136C9.5887 18.7136 9.45305 18.7698 9.35303 18.8698C9.25302 18.9698 9.19683 19.1054 9.19683 19.2469V19.7802C9.19691 20.0231 9.14167 20.2628 9.03531 20.4811C8.92895 20.6995 8.77425 20.8907 8.58296 21.0404C8.39167 21.19 8.1688 21.2942 7.93127 21.3449C7.69374 21.3956 7.44779 21.3915 7.21207 21.333C7.43001 22.3024 7.88196 23.2038 8.52846 23.9584C8.78437 24.257 8.97839 24.6034 9.09927 24.9776C9.22015 25.3518 9.26546 25.7462 9.23259 26.1381C9.19972 26.5299 9.08931 26.9113 8.90778 27.2601C8.72625 27.609 8.47722 27.9182 8.17515 28.17L7.1514 29.0232L8.5146 33.1128H9.64854L9.20223 29.9885C9.19142 29.9128 9.19699 29.8357 9.21856 29.7624C9.24013 29.6891 9.2772 29.6213 9.32726 29.5636C9.37732 29.5059 9.4392 29.4596 9.5087 29.4279C9.57821 29.3961 9.65373 29.3797 9.73014 29.3797H10.8869C11.7428 29.3773 12.5836 29.1545 13.3284 28.7328C14.0731 28.3111 14.6968 27.7047 15.1392 26.9721C15.1436 26.9647 15.1485 26.9579 15.1532 26.9509H15.1528C15.5495 26.3567 15.833 25.6942 15.9889 24.9969L17.0296 25.2302C16.8929 25.8413 16.6731 26.4309 16.3763 26.9823C19.1876 28.0624 22.3024 28.0444 25.101 26.932L24.6787 25.2428L25.7135 24.9841L26.2418 27.0973L27.2793 30.2099L29.2145 33.1128H30.8261L29.4964 29.5669C29.4739 29.5071 29.4625 29.4436 29.4625 29.3797V26.1799C29.4625 26.101 29.48 26.023 29.5137 25.9517C29.5475 25.8804 29.5966 25.8174 29.6576 25.7674C29.7187 25.7174 29.79 25.6815 29.8666 25.6624C29.9431 25.6433 30.023 25.6414 30.1004 25.6569C30.8345 25.8046 31.5938 25.7683 32.3105 25.5513C33.0272 25.3343 33.6791 24.9434 34.208 24.4133L34.9517 23.6697C35.0201 23.6014 35.1057 23.553 35.1995 23.5297L36.9287 23.0969V21.2128C35.9318 20.7778 35.1287 19.9926 34.6712 19.0058ZM29.1181 18.7176C28.5137 18.7161 27.9158 18.5932 27.3597 18.3562C26.8036 18.1193 26.3008 17.7732 25.881 17.3383L26.644 16.5929C27.132 17.1012 27.7645 17.4471 28.4558 17.5837C29.1471 17.7203 29.8637 17.641 30.5083 17.3565L30.7526 17.2493L30.4526 16.8651C30.1291 16.4451 29.7136 16.1049 29.238 15.8706C28.7624 15.6363 28.2394 15.5142 27.7092 15.5137H26.7473V14.4471H27.7092C28.4014 14.4472 29.0844 14.606 29.7056 14.9113C30.3268 15.2166 30.8698 15.6604 31.2926 16.2084L32.0157 17.1337C32.0657 17.1977 32.1005 17.2723 32.1173 17.3518C32.1341 17.4313 32.1325 17.5137 32.1126 17.5925C32.0928 17.6713 32.0551 17.7445 32.0026 17.8066C31.9502 17.8686 31.8842 17.9178 31.8097 17.9505L30.9371 18.3336C30.3639 18.5862 29.7446 18.717 29.1183 18.7176H29.1181ZM31.5957 21.3801C31.3847 21.3801 31.1785 21.3175 31.0031 21.2003C30.8277 21.0831 30.691 20.9166 30.6103 20.7217C30.5295 20.5268 30.5084 20.3123 30.5496 20.1054C30.5907 19.8985 30.6923 19.7085 30.8415 19.5593C30.9906 19.4101 31.1807 19.3085 31.3876 19.2674C31.5945 19.2262 31.809 19.2473 32.0039 19.3281C32.1988 19.4088 32.3653 19.5455 32.4825 19.7209C32.5997 19.8963 32.6623 20.1025 32.6623 20.3135C32.662 20.5963 32.5495 20.8674 32.3495 21.0673C32.1496 21.2673 31.8785 21.3798 31.5957 21.3801Z" fill="white"/>
</svg>
