<svg width="28" height="28" viewBox="0 0 28 28" fill="none" xmlns="http://www.w3.org/2000/svg">
<path d="M11.7256 12.3746L3.4773 20.623C3.26036 20.8397 3.08825 21.097 2.97083 21.3803C2.85341 21.6635 2.79297 21.9672 2.79297 22.2738C2.79297 22.5804 2.85341 22.8841 2.97083 23.1673C3.08825 23.4506 3.26036 23.7079 3.4773 23.9246C3.91487 24.3621 4.50825 24.6078 5.12697 24.6078C5.74569 24.6078 6.33907 24.3621 6.77664 23.9246L15.025 15.674M11.7256 12.3746C10.741 9.86279 10.9335 6.56695 12.9623 4.53695C14.9923 2.50695 18.7373 2.06245 20.8 3.30029L17.2533 6.84695L16.9231 10.4765L20.5526 10.1475L24.0993 6.59962C25.3383 8.66229 24.8926 12.4073 22.8626 14.4361C20.8326 16.4661 17.5368 16.6586 15.025 15.674" stroke="#6B7A99" stroke-width="1.8" stroke-linecap="round" stroke-linejoin="round"/>
</svg>
