<svg width="32" height="36" viewBox="0 0 32 36" fill="none" xmlns="http://www.w3.org/2000/svg">
<mask id="mask0_219_140" style="mask-type:luminance" maskUnits="userSpaceOnUse" x="0" y="0" width="32" height="36">
<path d="M32 18C32 8.05887 24.8366 0 16 0C7.16344 0 0 8.05887 0 18C0 27.9411 7.16344 36 16 36C24.8366 36 32 27.9411 32 18Z" fill="white"/>
</mask>
<g mask="url(#mask0_219_140)">
<path d="M32 0H0V36H32V0Z" fill="white"/>
<path d="M32 18C40.8366 18 48 9.94113 48 9.53674e-06C48 -9.94113 40.8366 -18 32 -18C23.1634 -18 16 -9.94113 16 9.53674e-06C16 9.94113 23.1634 18 32 18Z" fill="#ED143B"/>
<path d="M19.766 17.1781H10.3121V12.9695H19.766C20.3183 12.9695 20.7022 13.0778 20.8949 13.2668C21.0876 13.456 21.207 13.8067 21.207 14.319V15.8302C21.207 16.37 21.0876 16.7207 20.8949 16.9099C20.7022 17.0989 20.3183 17.1798 19.766 17.1798V17.1781ZM20.4146 9.00161H6.30273V27H10.3121V21.1444H17.701L21.207 27H25.6967L21.8311 21.1169C23.2563 20.8793 23.8962 20.388 24.4239 19.5782C24.9517 18.7685 25.2164 17.4739 25.2164 15.7462V14.3966C25.2164 13.3719 25.1199 12.5622 24.9517 11.9416C24.7835 11.3209 24.4959 10.7811 24.0875 10.2962C23.656 9.83722 23.1757 9.51395 22.599 9.29738C22.0224 9.1083 21.3019 9 20.4146 9V9.00161Z" fill="#100943"/>
</g>
</svg>
