<svg width="28" height="28" viewBox="0 0 28 28" fill="none" xmlns="http://www.w3.org/2000/svg">
<path d="M8.16666 16.3335C7.65739 16.3343 7.15443 16.4461 6.69286 16.6613C6.2313 16.8765 5.82226 17.1899 5.49429 17.5795C5.16632 17.9691 4.92732 18.4256 4.79398 18.9171C4.66064 19.4086 4.63616 19.9233 4.72225 20.4252C4.80835 20.9271 5.00294 21.4042 5.29246 21.8232C5.58197 22.2422 5.95943 22.5929 6.39849 22.851C6.83754 23.109 7.32762 23.2681 7.83452 23.3172C8.34141 23.3663 8.85292 23.3042 9.33333 23.1352" stroke="#6B7A99" stroke-width="1.8" stroke-linecap="round" stroke-linejoin="round"/>
<path d="M4.9744 18.206C4.27623 17.8699 3.67274 17.3652 3.2184 16.7375C2.76406 16.1098 2.47317 15.3789 2.37199 14.6106C2.27081 13.8424 2.36252 13.061 2.63884 12.3371C2.91516 11.6132 3.3674 10.9694 3.95474 10.464M3.98974 10.3695C3.60712 9.79696 3.43942 9.10751 3.51633 8.42319C3.59323 7.73888 3.90978 7.10385 4.40994 6.63051C4.9101 6.15718 5.5616 5.87608 6.24911 5.83697C6.93662 5.79787 7.6158 6.00328 8.1664 6.41684M8.44407 6.49267C8.25796 6.09723 8.16309 5.66501 8.16649 5.22797C8.16989 4.79092 8.27147 4.36023 8.46371 3.96773C8.65595 3.57522 8.93395 3.23094 9.27715 2.96033C9.62035 2.68971 10.02 2.49969 10.4465 2.4043C10.873 2.30891 11.3155 2.3106 11.7413 2.40923C12.1671 2.50786 12.5652 2.70092 12.9064 2.97414C13.2475 3.24736 13.5229 3.59375 13.7121 3.98771C13.9014 4.38167 13.9997 4.81312 13.9997 5.25017V23.3335C13.9997 23.9523 13.7539 24.5458 13.3163 24.9834C12.8787 25.421 12.2852 25.6668 11.6664 25.6668C11.0476 25.6668 10.4541 25.421 10.0165 24.9834C9.5789 24.5458 9.33307 23.9523 9.33307 23.3335M13.9997 8.16684C13.9997 9.0951 14.3685 9.98534 15.0249 10.6417C15.6812 11.2981 16.5715 11.6668 17.4997 11.6668M19.8331 16.3335C20.3423 16.3343 20.8453 16.4462 21.3069 16.6614C21.7684 16.8766 22.1775 17.1899 22.5054 17.5795C22.8334 17.9691 23.0724 18.4256 23.2058 18.9171C23.3391 19.4086 23.3636 19.9233 23.2775 20.4252C23.1914 20.9271 22.9968 21.4042 22.7073 21.8232C22.4178 22.2422 22.0403 22.5929 21.6012 22.851C21.1622 23.109 20.6721 23.2681 20.1652 23.3172C19.6583 23.3663 19.1468 23.3042 18.6664 23.1352" stroke="#6B7A99" stroke-width="1.8" stroke-linecap="round" stroke-linejoin="round"/>
<path d="M23.0253 18.206C23.7235 17.8699 24.327 17.3652 24.7813 16.7375C25.2357 16.1098 25.5266 15.3789 25.6277 14.6106C25.7289 13.8424 25.6372 13.061 25.3609 12.3371C25.0846 11.6132 24.6323 10.9694 24.045 10.464M24.01 10.3695C24.3926 9.79696 24.5603 9.10751 24.4834 8.42319C24.4065 7.73888 24.09 7.10385 23.5898 6.63051C23.0896 6.15718 22.4381 5.87608 21.7506 5.83697C21.0631 5.79787 20.3839 6.00328 19.8333 6.41684M14 5.25017C14.0001 4.81312 14.0984 4.38167 14.2876 3.98771C14.4769 3.59375 14.7522 3.24736 15.0934 2.97414C15.4345 2.70092 15.8327 2.50786 16.2584 2.40923C16.6842 2.3106 17.1267 2.30891 17.5532 2.4043C17.9798 2.49969 18.3794 2.68971 18.7226 2.96033C19.0658 3.23094 19.3438 3.57522 19.536 3.96773C19.7283 4.36023 19.8298 4.79092 19.8332 5.22797C19.8366 5.66501 19.7418 6.09723 19.5557 6.49267M18.6667 23.3335C18.6667 23.9523 18.4208 24.5458 17.9832 24.9834C17.5457 25.421 16.9522 25.6668 16.3333 25.6668C15.7145 25.6668 15.121 25.421 14.6834 24.9834C14.2458 24.5458 14 23.9523 14 23.3335" stroke="#6B7A99" stroke-width="1.8" stroke-linecap="round" stroke-linejoin="round"/>
</svg>
